<svg xmlns="http://www.w3.org/2000/svg" width="1240" height="1240"><path d="M513.363 4.479C504.782 13.574 486.952 20.235 453 27.03c-18.244 3.651-36.103 7.686-56 12.651-14.137 3.528-21.838 6.803-56.5 24.026-40.993 20.37-55.203 28.856-81.432 48.634-10.213 7.7-22.393 16.458-27.068 19.462-14.956 9.61-26.899 20.033-52.9 46.167-27.28 27.418-35.078 36.509-48.062 56.03-4.573 6.875-12.64 17.809-17.926 24.297C100.261 274.07 96.119 280.204 88.326 295a2897.205 2897.205 0 01-13.963 26.103c-4.06 7.482-10.702 21.207-14.761 30.5-4.059 9.293-9.41 21.407-11.89 26.92-6.667 14.818-8.81 22.95-17.71 67.202-10.652 52.959-16.604 71.472-26.139 81.297L0 531.002l.001 84.249.001 84.249 4.089 3.967c8.306 8.058 13.737 23.837 22.382 65.033 12.252 58.381 18.384 79.796 28.061 98 2.339 4.4 6.862 14.075 10.05 21.5 5.916 13.779 9.869 21.227 16.458 31.014 2.041 3.033 7.447 12.483 12.013 21 8.942 16.682 10.548 19.038 21.799 31.986 4.063 4.675 11.449 14.125 16.414 21 4.965 6.875 10.906 14.75 13.202 17.5 2.295 2.75 7.42 9.361 11.389 14.692 16.043 21.552 46.099 48.943 77.641 70.757 11.982 8.287 24.554 17.75 34 25.592 8.091 6.716 16.383 11.922 33.186 20.835 8.698 4.613 20.247 11.111 25.665 14.439 5.418 3.327 15.543 8.36 22.5 11.183 6.957 2.823 20.074 8.687 29.149 13.031 14.834 7.101 18.368 8.348 35 12.349 10.175 2.448 27.05 6.924 37.5 9.946 10.45 3.023 27.55 7.574 38 10.115 35.58 8.65 45.888 13.447 48.64 22.635l1.177 3.926H697.75l.592-2.961c.867-4.333 7.031-10.597 13.387-13.604 3.053-1.444 17.076-5.479 31.161-8.966 14.086-3.487 34.16-9.062 44.61-12.39 10.45-3.327 27.1-8.119 37-10.648 16.234-4.147 20.011-5.557 38.5-14.374a24382.324 24382.324 0 0131.36-14.929c11.651-5.53 53.32-28.542 60.473-33.397 2.384-1.618 9.134-6.973 15-11.9 5.867-4.927 16.067-12.603 22.667-17.058 23.109-15.598 39.378-28.968 59.534-48.929 20.489-20.289 33.758-36.436 49.18-59.844 4.167-6.325 11.378-15.815 16.023-21.09 10.531-11.956 12.083-14.234 24.812-36.41 17.787-30.987 20.731-36.525 26.013-48.929 2.827-6.639 7.579-16.656 10.561-22.261 6.958-13.078 9.513-19.968 13.917-37.526 1.97-7.856 6.241-22.515 9.49-32.576 3.25-10.06 7.317-24.235 9.038-31.5 8.809-37.183 11.231-44.007 18.031-50.807 2.103-2.103 5.304-4.207 7.112-4.676 2.532-.656 3.434-1.528 3.921-3.788.795-3.697 1.047-170.166.262-173.093-.391-1.46-1.645-2.356-3.883-2.776-3.612-.678-10.126-6.989-13.051-12.645-3.111-6.016-6.356-16.892-10.475-35.111-2.238-9.898-6.724-26.842-9.968-37.654-3.244-10.812-7.285-25.186-8.981-31.941-1.695-6.756-3.802-14.406-4.682-17-3.056-9.012-20.639-47.784-26.855-59.217-3.439-6.325-9.013-17.016-12.387-23.758-8.447-16.877-16.515-30.224-25.313-41.878-4.096-5.425-12.534-17.289-18.751-26.364-12.277-17.921-15.141-21.691-25.017-32.935-9.096-10.355-43.177-44.459-51.031-51.065-3.575-3.007-9.875-8.549-14-12.317-4.125-3.767-11.325-9.391-16-12.497-4.675-3.106-16.55-11.416-26.388-18.467-32.145-23.037-41.516-28.688-79.081-47.689-19.783-10.006-39.358-19.309-43.5-20.672-12.2-4.017-51.961-13.972-73.531-18.412-33.301-6.853-49.968-13.127-57.447-21.623L716.248 0l-99.374.047L517.5.094l-4.137 4.385m63.386 76.512c-25.989 1.711-49.533 5.798-68.962 11.97-14.939 4.745-20.018 6.052-39.287 10.11-20.26 4.265-29.641 7.483-46.619 15.991-7.91 3.963-20.231 9.419-27.381 12.125-14.989 5.673-19.29 7.974-44.5 23.804-10.175 6.389-22.325 13.79-27 16.447-17.725 10.075-39.5 27.064-60.5 47.203-36.161 34.678-56.286 56.062-69.334 73.673-12.141 16.386-16.575 23.164-25.634 39.186-3.731 6.6-11.229 19.103-16.661 27.785-11.898 19.014-14.495 24.069-19.374 37.715-2.065 5.775-6.797 16.581-10.514 24.014-10.311 20.614-13.558 30.916-19.434 61.665-1.385 7.248-4.755 21.068-7.49 30.71-5.973 21.063-8.484 33.631-10.539 52.746-2.229 20.733-2.993 57.232-1.608 76.849 2.309 32.733 5.318 50.078 13.645 78.666 2.986 10.253 6.811 25.888 8.5 34.746 3.95 20.723 8.002 32.728 18.386 54.478 4.629 9.694 10.734 23.476 13.569 30.626 6.346 16.012 7.964 18.916 24.791 44.5 36.248 55.112 38.081 57.656 55.767 77.422 20.712 23.15 45.073 46.365 71.835 68.458 4.794 3.958 22.86 15.849 33.595 22.114 4.125 2.407 14.7 9.133 23.5 14.946 21.708 14.341 39.052 23.396 64 33.413 11.55 4.637 25.65 10.496 31.333 13.019 15.538 6.898 27.194 10.275 48.429 14.031 10.581 1.871 28.202 5.497 39.158 8.059 36.422 8.513 59.715 11.541 88.752 11.535 31.546-.007 49.249-2.552 100.328-14.422 6.05-1.406 18.425-3.912 27.5-5.568 23.784-4.341 32.672-6.983 51.838-15.407 9.382-4.124 24.988-10.735 34.681-14.692 21.534-8.792 48.639-24.038 70.981-39.929 4.4-3.129 14.075-9.436 21.5-14.015 7.425-4.579 15.582-9.932 18.127-11.895 8.732-6.737 33.388-29.881 51.899-48.717 35.607-36.232 41.364-43.272 58.738-71.82 3.002-4.933 11.664-17.983 19.248-29 15.594-22.653 20.05-30.908 25.927-48.032 2.265-6.6 7.924-19.65 12.574-29 10.14-20.388 13.341-29.91 18.098-53.844 1.985-9.986 6.661-30.306 10.391-45.156 9.771-38.903 10.185-42.222 10.733-86 .614-49.154-.892-62.374-12.246-107.5-2.975-11.825-6.125-25.775-6.999-31-1.967-11.752-6.966-31.339-10.209-40-1.339-3.575-5.059-11.45-8.267-17.5-3.209-6.05-7.949-17.075-10.534-24.5-5.512-15.829-7.788-20.544-15.452-32-5.729-8.563-19.556-32.43-26.428-45.619-4.548-8.727-25.719-37.111-35.748-47.928-4.056-4.374-9.139-9.978-11.296-12.453-10.728-12.311-30.574-32.711-43.556-44.771-17.581-16.334-48.894-40.079-66.27-50.252-7.024-4.112-19.174-11.686-27-16.831-16.635-10.935-19.951-12.697-34.983-18.595-6.186-2.427-17.772-7.735-25.747-11.796-16.499-8.4-27.106-12.021-52-17.754-9.625-2.216-24.025-6.036-32-8.487-22.039-6.774-38.428-10.167-60.5-12.523-13.042-1.393-77.374-2.079-93.751-1M576 237.34c-16.501 3.914-22.847 11.22-25.113 28.911-.581 4.537-.75 11.849-.374 16.249.605 7.095 1.744 66.634 1.921 100.5.077 14.566-1.472 20.07-7.017 24.939-6.933 6.087-12.524 5.498-41.917-4.413-28-9.441-35.662-10.957-55-10.88-13.364.053-17.236.502-35.5 4.121-43.234 8.566-48.205 10.617-72 29.701-16.733 13.421-30.26 26.642-35.928 35.116-6.149 9.193-21.901 40.309-25.52 50.41-4.951 13.818-5.671 19.045-6.251 45.357-.899 40.821 1.962 62.26 10.76 80.621 9.066 18.919 24.92 43.082 33.56 51.149 6.225 5.811 29.135 24.689 33.34 27.472 7.202 4.766 18.489 8.524 50.039 16.66l31.5 8.123 18.5.062c20.984.07 22.074-.139 52.436-10.077 13.775-4.509 18.629-5.645 26.015-6.085 8.722-.521 9.203-.438 12.204 2.087 5.775 4.86 7.416 12.416 9.355 43.094 1.248 19.751 5.584 59.412 7.602 69.543.822 4.125 3.005 10.723 4.85 14.663 4.459 9.516 28.481 45.202 33.243 49.383 9.542 8.378 37.023 23.792 50.689 28.43 4.342 1.474 14.242 4.163 22 5.975 7.758 1.812 20.406 4.987 28.106 7.056 11.334 3.045 16.286 3.852 26 4.237 15.393.61 22.543-.732 51.5-9.667 39.206-12.097 48.544-16.67 63.5-31.094 5.5-5.304 13.651-12.393 18.112-15.754 4.462-3.36 10.024-8.274 12.361-10.919 8.878-10.05 28.7-42.509 33.057-54.13 3.644-9.72 4.79-21.307 5.347-54.066.558-32.867-.012-42-3.472-55.614-4.354-17.129-19.466-46.919-30.86-60.832-6.421-7.839-33.785-32.86-41.212-37.681-9.398-6.102-33.773-12.896-66.833-18.629-25.838-4.481-62.17-.341-81.226 9.256-10.768 5.423-27.403 10.742-33.778 10.801-10.045.094-15.589-5.279-18.565-17.991-1.41-6.023-1.604-14.931-1.493-68.424.07-33.825-.168-96.825-.527-140-.433-51.938-.285-85.775.436-100 1.272-25.066.528-33.746-3.598-42-3.416-6.835-9.056-11.229-18.041-14.057-8.427-2.653-24.428-3.449-32.208-1.603M437.161 467.076c-18.345 2.38-37.32 13.621-55.356 32.793-15.659 16.646-23.05 38.007-23.054 66.631-.003 18.874 5.431 40.901 13.326 54.019 6.995 11.623 24.571 27.17 38.273 33.856 14.847 7.243 19.659 8.102 45.15 8.058 20.636-.036 22.611-.203 31.851-2.703 16.063-4.347 22.697-7.922 30.801-16.599 9.547-10.223 11.955-13.962 19.256-29.892 7.245-15.808 9.123-21.19 10.551-30.239 2.544-16.115.761-29.807-6.36-48.842-9.022-24.119-17.844-38.924-29.343-49.246-15.423-13.843-47.374-21.432-75.095-17.836M.478 615c0 47.025.122 66.263.272 42.75.149-23.512.149-61.987 0-85.5C.6 548.738.478 567.975.478 615m715.053 59.044c-15.047 2.367-23.778 7.107-40.297 21.874-14.779 13.212-20.984 21.187-29.631 38.082-10.772 21.047-12.117 26.018-12.042 44.5.059 14.741.125 15.181 3.82 25.5 7.761 21.677 15.146 33.652 28.558 46.303 8.024 7.571 18.974 13.402 31.615 16.839 6.944 1.888 10.719 2.172 29.946 2.259 36.826.166 48.529-3.745 69.689-23.289 8.857-8.179 13.972-16.078 17.707-27.343 7.223-21.783 9.482-41.681 6.681-58.861-4.137-25.38-10.674-41.909-20.515-51.873-17.887-18.11-33.057-28.325-47.581-32.04-9.048-2.314-29.095-3.345-37.95-1.951" fill="undefined" fill-rule="evenodd"/></svg>