<?xml version="1.0" encoding="utf-8"?>
<!-- Svg Vector Icons : http://www.onlinewebfonts.com/icon -->
<!DOCTYPE svg PUBLIC "-//W3C//DTD SVG 1.1//EN" "http://www.w3.org/Graphics/SVG/1.1/DTD/svg11.dtd">
<svg version="1.1" xmlns="http://www.w3.org/2000/svg" xmlns:xlink="http://www.w3.org/1999/xlink" x="0px" y="0px" viewBox="0 0 1000 1000" enable-background="new 0 0 1000 1000" xml:space="preserve">
<metadata> Svg Vector Icons : http://www.onlinewebfonts.com/icon </metadata>
<g><path d="M663.3,887.9V438.8H694c16.9,0,30.6,13.7,30.6,30.6v285.8c0,73.3,59.4,132.7,132.7,132.7c73.3,0,132.7-59.4,132.7-132.7V205.6c0-28.8-11.8-54.7-30.8-73.3L850.9,24.7c-19.6-19.6-51.3-19.6-70.8,0c-19.6,19.6-19.6,51.2,0,70.8l70.2,70.4l-51.9,54.1c-16.9,17.4-16.9,45.3,0,62.7c8.4,9,19.6,13.2,30.8,13.1l58.6-0.2v459.6c0,16.9-13.7,30.6-30.6,30.6c-16.9,0-30.6-13.7-30.6-30.6V469.4c0-73.3-59.4-132.7-132.7-132.7h-30.6v-245c0-45.1-36.5-81.7-81.7-81.7H152.9c-45.1,0-81.7,36.5-81.7,81.7v796.2H61c-28.2,0-51,22.9-51,51c0,28.2,22.9,51,51,51h612.5c28.2,0,51-22.9,51-51c0-28.2-22.9-51-51-51H663.3L663.3,887.9z M218.3,112.1h298.1c24.9,0,44.9,20,44.9,44.9v216.4c0,24.9-20,44.9-44.9,44.9H218.3c-24.9,0-44.9-20-44.9-44.9V157C173.3,132.1,193.3,112.1,218.3,112.1L218.3,112.1z"/></g>
</svg>